<?xml version="1.0" standalone="no"?>
<!DOCTYPE svg PUBLIC "-//W3C//DTD SVG 1.1//EN" "http://www.w3.org/Graphics/SVG/1.1/DTD/svg11.dtd" >
<svg xmlns="http://www.w3.org/2000/svg" xmlns:xlink="http://www.w3.org/1999/xlink" version="1.1">
<metadata></metadata>
<defs>
<font id="combinumerals_ltdregular" horiz-adv-x="1679" >
<font-face units-per-em="2048" ascent="1579" descent="-469" />
<missing-glyph horiz-adv-x="419" />
<glyph unicode="&#x31;&#x28;" d="M72 739q0 209 103 385.5t279.5 279.5t385.5 103t385.5 -103t279.5 -279.5t103 -385.5t-103 -385.5t-279.5 -279.5t-385.5 -103t-385.5 103t-279.5 279.5t-103 385.5zM166 739q0 -183 90 -338t245 -245t339 -90t338.5 90t244.5 244.5t90 338.5t-90 339t-245 245t-338 90 q-137 0 -262 -53.5t-215 -143.5t-143.5 -215t-53.5 -262zM387 987l186 189h105v-871h-143v709l-97 -119zM805 901q0 131 61 210t162 79q227 0 227 -416q0 -231 -73.5 -357t-206.5 -126q-72 0 -137 26l14 121q57 -32 106 -32q45 0 78.5 29t50.5 75.5t25 93.5t8 94 q-14 -34 -43.5 -57t-62.5 -23q-99 0 -154 75t-55 208zM950 903q0 -79 20.5 -124.5t57.5 -45.5q25 0 42 19t25.5 50t11.5 59.5t3 58.5q0 63 -21 110t-61 47q-34 0 -56 -49.5t-22 -124.5z" />
<glyph unicode="&#x31;&#x29;" d="M72 739q0 209 103 385.5t279.5 279.5t385.5 103t385.5 -103t279.5 -279.5t103 -385.5t-103 -385.5t-279.5 -279.5t-385.5 -103t-385.5 103t-279.5 279.5t-103 385.5zM166 739q0 -183 90 -338t245 -245t339 -90t338.5 90t244.5 244.5t90 338.5t-90 339t-245 245t-338 90 q-137 0 -262 -53.5t-215 -143.5t-143.5 -215t-53.5 -262zM381 987l186 189h105v-871h-144v709l-96 -119zM803 741q0 215 58 332t173 117t173.5 -119t58.5 -334q0 -214 -58.5 -330t-173.5 -116t-173 117.5t-58 332.5zM948 737q0 -334 86 -334t86 338q0 336 -86 336t-86 -340z " />
<glyph unicode="&#x31;&#x40;" d="M72 739q0 209 103 385.5t279.5 279.5t385.5 103t385.5 -103t279.5 -279.5t103 -385.5t-103 -385.5t-279.5 -279.5t-385.5 -103t-385.5 103t-279.5 279.5t-103 385.5zM166 739q0 -183 90 -338t245 -245t339 -90t338.5 90t244.5 244.5t90 338.5t-90 339t-245 245t-338 90 q-137 0 -262 -53.5t-215 -143.5t-143.5 -215t-53.5 -262zM377 987l186 189h105v-871h-144v709l-96 -119zM811 305v133q24 38 80.5 112.5t93.5 126.5t68.5 126.5t31.5 140.5q0 57 -25 94t-63 37q-47 0 -93.5 -23t-63.5 -40l-11 121q26 21 80.5 39t110.5 18q98 0 155.5 -67.5 t57.5 -182.5q0 -88 -28.5 -165.5t-63.5 -125t-85.5 -114.5t-76.5 -117h270v-113h-438z" />
<glyph unicode="&#x31;&#x23;" d="M72 739q0 209 103 385.5t279.5 279.5t385.5 103t385.5 -103t279.5 -279.5t103 -385.5t-103 -385.5t-279.5 -279.5t-385.5 -103t-385.5 103t-279.5 279.5t-103 385.5zM166 739q0 -183 90 -338t245 -245t339 -90t338.5 90t244.5 244.5t90 338.5t-90 339t-245 245t-338 90 q-137 0 -262 -53.5t-215 -143.5t-143.5 -215t-53.5 -262zM391 987l187 189h104v-871h-143v709l-97 -119zM805 324l4 122q16 -11 56.5 -25.5t76.5 -14.5q65 0 104 38t39 101q0 153 -139 153h-53v115h43q65 0 106 33.5t41 101.5q0 58 -30.5 92.5t-83.5 34.5q-40 0 -77.5 -15.5 t-57.5 -31.5l-7 119q22 15 65 29t93 14q112 0 178 -63t66 -169q0 -75 -39 -129t-103 -73q146 -40 146 -217q0 -118 -73.5 -183t-201.5 -65q-87 0 -153 33z" />
<glyph unicode="&#x31;&#x24;" d="M72 739q0 209 103 385.5t279.5 279.5t385.5 103t385.5 -103t279.5 -279.5t103 -385.5t-103 -385.5t-279.5 -279.5t-385.5 -103t-385.5 103t-279.5 279.5t-103 385.5zM166 739q0 -183 90 -338t245 -245t339 -90t338.5 90t244.5 244.5t90 338.5t-90 339t-245 245t-338 90 q-137 0 -262 -53.5t-215 -143.5t-143.5 -215t-53.5 -262zM371 987l186 189h105v-871h-144v709l-96 -119zM764 496v118l227 562h187v-568h90v-112h-90v-191h-138v191h-276zM903 608h137v383z" />
<glyph unicode="&#x31;&#x25;" d="M72 739q0 209 103 385.5t279.5 279.5t385.5 103t385.5 -103t279.5 -279.5t103 -385.5t-103 -385.5t-279.5 -279.5t-385.5 -103t-385.5 103t-279.5 279.5t-103 385.5zM166 739q0 -183 90 -338t245 -245t339 -90t338.5 90t244.5 244.5t90 338.5t-90 339t-245 245t-338 90 q-137 0 -262 -53.5t-215 -143.5t-143.5 -215t-53.5 -262zM373 987l186 189h105v-871h-144v709l-96 -119zM801 328l8 133q73 -41 149 -41q69 0 109.5 47t40.5 123q0 70 -40.5 116t-119.5 46q-60 0 -133 -29v453h402v-123h-275v-199q33 10 90 10q95 0 158 -71.5t63 -196.5 q0 -143 -73 -223t-197 -80q-79 0 -182 35z" />
<glyph unicode="&#x31;^" d="M72 739q0 209 103 385.5t279.5 279.5t385.5 103t385.5 -103t279.5 -279.5t103 -385.5t-103 -385.5t-279.5 -279.5t-385.5 -103t-385.5 103t-279.5 279.5t-103 385.5zM166 739q0 -183 90 -338t245 -245t339 -90t338.5 90t244.5 244.5t90 338.5t-90 339t-245 245t-338 90 q-137 0 -262 -53.5t-215 -143.5t-143.5 -215t-53.5 -262zM360 987l187 189h104v-871h-143v709l-96 -119zM793 707q0 232 72.5 357.5t207.5 125.5q61 0 139 -29l-16 -121q-62 35 -106 35q-46 0 -79.5 -28.5t-50.5 -76.5t-24.5 -93.5t-9.5 -96.5q16 34 45 57t63 23 q99 0 154 -74.5t55 -207.5q0 -130 -61.5 -208.5t-163.5 -78.5q-225 0 -225 416zM938 541q0 -48 22 -93t58 -45q34 0 57 49t23 123q0 77 -21.5 123.5t-58.5 46.5q-40 0 -60 -46.5t-20 -157.5z" />
<glyph unicode="&#x31;&#x26;" d="M72 739q0 209 103 385.5t279.5 279.5t385.5 103t385.5 -103t279.5 -279.5t103 -385.5t-103 -385.5t-279.5 -279.5t-385.5 -103t-385.5 103t-279.5 279.5t-103 385.5zM166 739q0 -183 90 -338t245 -245t339 -90t338.5 90t244.5 244.5t90 338.5t-90 339t-245 245t-338 90 q-137 0 -262 -53.5t-215 -143.5t-143.5 -215t-53.5 -262zM391 987l187 189h104v-871h-143v709l-97 -119zM809 1061v115h432v-117l-231 -754h-158l248 756h-291z" />
<glyph unicode="&#x31;&#x2a;" d="M72 739q0 209 103 385.5t279.5 279.5t385.5 103t385.5 -103t279.5 -279.5t103 -385.5t-103 -385.5t-279.5 -279.5t-385.5 -103t-385.5 103t-279.5 279.5t-103 385.5zM166 739q0 -183 90 -338t245 -245t339 -90t338.5 90t244.5 244.5t90 338.5t-90 339t-245 245t-338 90 q-137 0 -262 -53.5t-215 -143.5t-143.5 -215t-53.5 -262zM356 987l187 189h104v-871h-143v709l-96 -119zM778 528q0 160 140 230q-140 74 -140 213q0 101 65 160t173 59q100 0 164.5 -57.5t64.5 -149.5q0 -67 -39 -127t-100 -88q73 -37 108 -94t35 -142q0 -110 -65.5 -175.5 t-171.5 -65.5q-103 0 -168.5 66t-65.5 171zM918 963q0 -84 106 -150q26 18 51 60t25 94q0 49 -25 79.5t-65 30.5q-38 0 -65 -33.5t-27 -80.5zM924 535q0 -55 27 -93.5t65 -38.5t62 35.5t24 93.5q0 57 -25 96.5t-76 71.5q-40 -34 -58.5 -71t-18.5 -94z" />
<glyph unicode="&#x31;&#x21;" d="M72 739q0 209 103 385.5t279.5 279.5t385.5 103t385.5 -103t279.5 -279.5t103 -385.5t-103 -385.5t-279.5 -279.5t-385.5 -103t-385.5 103t-279.5 279.5t-103 385.5zM166 739q0 -183 90 -338t245 -245t339 -90t338.5 90t244.5 244.5t90 338.5t-90 339t-245 245t-338 90 q-137 0 -262 -53.5t-215 -143.5t-143.5 -215t-53.5 -262zM422 987l186 189h105v-871h-144v709l-96 -119zM846 987l186 189h105v-871h-144v709l-96 -119z" />
<glyph horiz-adv-x="0" />
<glyph horiz-adv-x="682" />
<glyph unicode=" "  horiz-adv-x="419" />
<glyph unicode="&#x09;" horiz-adv-x="419" />
<glyph unicode="&#xa0;" horiz-adv-x="419" />
<glyph unicode="!" horiz-adv-x="839" d="M-4 -29v95q187 0 343 90t245.5 244.5t89.5 338.5t-89.5 339t-245.5 245t-343 90v94q159 0 302.5 -61t246 -164t163 -245t60.5 -298t-60.5 -298t-163 -245t-246 -164t-302.5 -61zM78 987l186 189h105v-871h-144v709l-96 -119z" />
<glyph unicode="#" horiz-adv-x="839" d="M-4 -29v95q187 0 343 90t245.5 244.5t89.5 338.5t-89.5 339t-245.5 245t-343 90v94q159 0 302.5 -61t246 -164t163 -245t60.5 -298t-60.5 -298t-163 -245t-246 -164t-302.5 -61zM27 324l4 122q16 -11 56.5 -25.5t76.5 -14.5q65 0 104 38t39 101q0 153 -139 153h-53v115 h43q65 0 106 33.5t41 101.5q0 58 -31 92.5t-84 34.5q-40 0 -77.5 -15.5t-57.5 -31.5l-6 119q22 15 65 29t93 14q112 0 178 -63t66 -169q0 -75 -39 -129t-103 -73q146 -40 146 -217q0 -118 -73.5 -183t-201.5 -65q-87 0 -153 33z" />
<glyph unicode="$" horiz-adv-x="839" d="M-4 -29v95q187 0 343 90t245.5 244.5t89.5 338.5t-89.5 339t-245.5 245t-343 90v94q159 0 302.5 -61t246 -164t163 -245t60.5 -298t-60.5 -298t-163 -245t-246 -164t-302.5 -61zM6 496v118l227 562h187v-568h90v-112h-90v-191h-137v191h-277zM145 608h138v383z" />
<glyph unicode="%" horiz-adv-x="839" d="M-4 -29v95q187 0 343 90t245.5 244.5t89.5 338.5t-89.5 339t-245.5 245t-343 90v94q159 0 302.5 -61t246 -164t163 -245t60.5 -298t-60.5 -298t-163 -245t-246 -164t-302.5 -61zM25 328l8 133q73 -41 149 -41q69 0 109.5 47t40.5 123q0 70 -40.5 116t-119.5 46 q-60 0 -133 -29v453h401v-123h-274v-199q33 10 90 10q95 0 158 -71.5t63 -196.5q0 -143 -73 -223t-197 -80q-79 0 -182 35z" />
<glyph unicode="&#x26;" horiz-adv-x="839" d="M-4 -29v95q187 0 343 90t245.5 244.5t89.5 338.5t-89.5 339t-245.5 245t-343 90v94q159 0 302.5 -61t246 -164t163 -245t60.5 -298t-60.5 -298t-163 -245t-246 -164t-302.5 -61zM33 1061v115h432v-117l-232 -754h-157l248 756h-291z" />
<glyph unicode="(" horiz-adv-x="839" d="M-4 -29v95q187 0 343 90t245.5 244.5t89.5 338.5t-89.5 339t-245.5 245t-343 90v94q159 0 302.5 -61t246 -164t163 -245t60.5 -298t-60.5 -298t-163 -245t-246 -164t-302.5 -61zM31 901q0 131 61 210t162 79q227 0 227 -416q0 -231 -73.5 -357t-206.5 -126q-73 0 -138 26 l15 121q57 -32 106 -32q45 0 78.5 29t50.5 75.5t25 93.5t8 94q-14 -34 -43.5 -57t-62.5 -23q-99 0 -154 75t-55 208zM176 903q0 -79 20.5 -124.5t57.5 -45.5q25 0 42 19t25.5 50t11.5 59.5t3 58.5q0 63 -21 110t-61 47q-34 0 -56 -49.5t-22 -124.5z" />
<glyph unicode=")" horiz-adv-x="839" d="M-4 -29v95q187 0 343 90t245.5 244.5t89.5 338.5t-89.5 339t-245.5 245t-343 90v94q159 0 302.5 -61t246 -164t163 -245t60.5 -298t-60.5 -298t-163 -245t-246 -164t-302.5 -61zM27 741q0 215 58 332t173 117t173 -119t58 -334t-58 -330.5t-173 -115.5t-173 117.5 t-58 332.5zM172 737q0 -334 86 -334t86 338q0 336 -86 336t-86 -340z" />
<glyph unicode="*" horiz-adv-x="839" d="M-4 -29v95q187 0 343 90t245.5 244.5t89.5 338.5t-89.5 339t-245.5 245t-343 90v94q159 0 302.5 -61t246 -164t163 -245t60.5 -298t-60.5 -298t-163 -245t-246 -164t-302.5 -61zM20 528q0 160 140 230q-140 74 -140 213q0 101 65 160t173 59q100 0 164.5 -57.5 t64.5 -149.5q0 -67 -39 -127t-100 -88q73 -37 108.5 -94t35.5 -142q0 -110 -66 -175.5t-172 -65.5q-103 0 -168.5 66t-65.5 171zM160 963q0 -84 106 -150q26 18 51 60t25 94q0 49 -25 79.5t-65 30.5q-38 0 -65 -33.5t-27 -80.5zM166 535q0 -55 27 -93.5t65 -38.5t62 35.5 t24 93.5q0 57 -24.5 96.5t-75.5 71.5q-41 -34 -59.5 -71t-18.5 -94z" />
<glyph unicode="0" horiz-adv-x="839" d="M72 739q0 156 60.5 298t163 245t246 164t302.5 61v-94q-187 0 -343 -90t-245.5 -245t-89.5 -339t89.5 -338.5t245.5 -244.5t343 -90v-95q-159 0 -302.5 61t-246 164t-163 245t-60.5 298zM350 741q0 215 58.5 332t173.5 117t173 -119t58 -334t-58 -330.5t-173 -115.5 t-173.5 117.5t-58.5 332.5zM496 737q0 -334 86 -334t86 338q0 336 -86 336t-86 -340z" />
<glyph unicode="1" horiz-adv-x="839" d="M72 739q0 156 60.5 298t163 245t246 164t302.5 61v-94q-187 0 -343 -90t-245.5 -245t-89.5 -339t89.5 -338.5t245.5 -244.5t343 -90v-95q-159 0 -302.5 61t-246 164t-163 245t-60.5 298zM401 987l187 189h104v-871h-143v709l-96 -119z" />
<glyph unicode="2" horiz-adv-x="839" d="M72 739q0 156 60.5 298t163 245t246 164t302.5 61v-94q-187 0 -343 -90t-245.5 -245t-89.5 -339t89.5 -338.5t245.5 -244.5t343 -90v-95q-159 0 -302.5 61t-246 164t-163 245t-60.5 298zM358 305v133q25 38 81 112t93.5 126.5t69 127t31.5 140.5q0 57 -25 94t-63 37 q-47 0 -94 -23t-64 -40l-10 121q26 21 80 39t110 18q98 0 155.5 -67.5t57.5 -182.5q0 -88 -28.5 -165.5t-63.5 -125t-85.5 -114.5t-76.5 -117h271v-113h-439z" />
<glyph unicode="3" horiz-adv-x="839" d="M72 739q0 156 60.5 298t163 245t246 164t302.5 61v-94q-187 0 -343 -90t-245.5 -245t-89.5 -339t89.5 -338.5t245.5 -244.5t343 -90v-95q-159 0 -302.5 61t-246 164t-163 245t-60.5 298zM350 324l4 122q16 -11 56.5 -25.5t76.5 -14.5q65 0 104.5 38t39.5 101 q0 153 -139 153h-54v115h43q65 0 106.5 33.5t41.5 101.5q0 58 -31 92.5t-84 34.5q-40 0 -77.5 -15.5t-57.5 -31.5l-6 119q22 16 64.5 29.5t92.5 13.5q112 0 178 -63t66 -169q0 -75 -38.5 -129t-102.5 -73q145 -39 145 -217q0 -118 -73 -183t-201 -65q-88 0 -154 33z" />
<glyph unicode="4" horiz-adv-x="839" d="M72 739q0 156 60.5 298t163 245t246 164t302.5 61v-94q-187 0 -343 -90t-245.5 -245t-89.5 -339t89.5 -338.5t245.5 -244.5t343 -90v-95q-159 0 -302.5 61t-246 164t-163 245t-60.5 298zM330 496v118l227 562h186v-568h91v-112h-91v-191h-137v191h-276zM469 608h137v383z " />
<glyph unicode="5" horiz-adv-x="839" d="M72 739q0 156 60.5 298t163 245t246 164t302.5 61v-94q-187 0 -343 -90t-245.5 -245t-89.5 -339t89.5 -338.5t245.5 -244.5t343 -90v-95q-159 0 -302.5 61t-246 164t-163 245t-60.5 298zM348 328l8 133q73 -41 150 -41q69 0 109 47t40 123q0 70 -40 116t-119 46 q-62 0 -134 -29v453h402v-123h-275v-199q33 10 91 10q95 0 158 -71.5t63 -196.5q0 -143 -73 -223t-198 -80q-80 0 -182 35z" />
<glyph unicode="6" horiz-adv-x="839" d="M72 739q0 156 60.5 298t163 245t246 164t302.5 61v-94q-187 0 -343 -90t-245.5 -245t-89.5 -339t89.5 -338.5t245.5 -244.5t343 -90v-95q-159 0 -302.5 61t-246 164t-163 245t-60.5 298zM356 707q0 232 73 357.5t208 125.5q61 0 139 -29l-16 -121q-63 35 -107 35 q-46 0 -79.5 -28.5t-50.5 -76.5t-24.5 -93.5t-9.5 -96.5q16 34 45.5 57t63.5 23q99 0 154 -74.5t55 -207.5q0 -130 -61.5 -208.5t-163.5 -78.5q-226 0 -226 416zM502 541q0 -48 22 -93t58 -45q34 0 57 49t23 123q0 77 -21.5 123.5t-58.5 46.5q-40 0 -60 -46.5t-20 -157.5z " />
<glyph unicode="7" horiz-adv-x="839" d="M72 739q0 156 60.5 298t163 245t246 164t302.5 61v-94q-187 0 -343 -90t-245.5 -245t-89.5 -339t89.5 -338.5t245.5 -244.5t343 -90v-95q-159 0 -302.5 61t-246 164t-163 245t-60.5 298zM356 1061v115h432v-117l-231 -754h-158l248 756h-291z" />
<glyph unicode="8" horiz-adv-x="839" d="M72 739q0 156 60.5 298t163 245t246 164t302.5 61v-94q-187 0 -343 -90t-245.5 -245t-89.5 -339t89.5 -338.5t245.5 -244.5t343 -90v-95q-159 0 -302.5 61t-246 164t-163 245t-60.5 298zM344 528q0 160 139 230q-139 74 -139 213q0 101 65 160t173 59q100 0 164.5 -57.5 t64.5 -149.5q0 -67 -39 -127t-100 -88q73 -37 108 -94t35 -142q0 -110 -65.5 -175.5t-171.5 -65.5q-103 0 -168.5 66t-65.5 171zM483 963q0 -83 107 -150q26 18 51 60t25 94q0 49 -25.5 79.5t-65.5 30.5q-38 0 -65 -33.5t-27 -80.5zM489 535q0 -55 27.5 -93.5t65.5 -38.5 t62 35.5t24 93.5q0 57 -25 96.5t-76 71.5q-41 -34 -59.5 -71t-18.5 -94z" />
<glyph unicode="9" horiz-adv-x="839" d="M72 739q0 156 60.5 298t163 245t246 164t302.5 61v-94q-187 0 -343 -90t-245.5 -245t-89.5 -339t89.5 -338.5t245.5 -244.5t343 -90v-95q-159 0 -302.5 61t-246 164t-163 245t-60.5 298zM354 901q0 131 61.5 210t162.5 79q227 0 227 -416q0 -231 -74 -357t-207 -126 q-72 0 -137 26l14 121q57 -32 107 -32q45 0 78.5 29t50.5 75.5t25 93.5t8 94q-14 -34 -44 -57t-63 -23q-99 0 -154 75t-55 208zM500 903q0 -79 20.5 -124.5t57.5 -45.5q25 0 42 19t25 50t11 59.5t3 58.5q0 64 -20.5 110.5t-60.5 46.5q-34 0 -56 -49.5t-22 -124.5z" />
<glyph unicode="@" horiz-adv-x="839" d="M-4 -29v95q187 0 343 90t245.5 244.5t89.5 338.5t-89.5 339t-245.5 245t-343 90v94q159 0 302.5 -61t246 -164t163 -245t60.5 -298t-60.5 -298t-163 -245t-246 -164t-302.5 -61zM35 305v133q24 38 80.5 112.5t93.5 126.5t68.5 126.5t31.5 140.5q0 57 -25 94t-63 37 q-47 0 -94 -23t-64 -40l-10 121q26 21 80.5 39t110.5 18q98 0 155.5 -67.5t57.5 -182.5q0 -88 -28.5 -165.5t-63.5 -125t-85.5 -114.5t-76.5 -117h270v-113h-438z" />
<glyph unicode="\" d="M0 739q0 114 30 223t84.5 201t132 169.5t169.5 132t201 84.5t223 30q171 0 326 -66.5t267.5 -179t179 -268t66.5 -326.5t-66.5 -326t-179 -267.5t-267.5 -179t-326 -66.5t-326.5 66.5t-268 179t-179 267.5t-66.5 326zM41 739q0 -162 63.5 -310t170.5 -254.5t255 -170 t310 -63.5t310 63.5t254.5 170t170 254.5t63.5 310t-63.5 310t-170 255t-254.5 170.5t-310 63.5t-310 -63.5t-255 -170.5t-170.5 -255t-63.5 -310z" />
<glyph unicode="^" horiz-adv-x="839" d="M-4 -29v95q187 0 343 90t245.5 244.5t89.5 338.5t-89.5 339t-245.5 245t-343 90v94q159 0 302.5 -61t246 -164t163 -245t60.5 -298t-60.5 -298t-163 -245t-246 -164t-302.5 -61zM33 707q0 232 72.5 357.5t207.5 125.5q62 0 140 -29l-17 -121q-62 35 -106 35 q-46 0 -79.5 -28.5t-50.5 -76.5t-24.5 -93.5t-9.5 -96.5q16 34 45 57t63 23q99 0 154 -74.5t55 -207.5q0 -130 -61.5 -208.5t-163.5 -78.5q-225 0 -225 416zM178 541q0 -48 22 -93t58 -45q34 0 57 49t23 123q0 77 -21.5 123.5t-58.5 46.5q-40 0 -60 -46.5t-20 -157.5z" />
<glyph unicode="e" d="M72 739q0 209 103 385.5t279.5 279.5t385.5 103t385.5 -103t279.5 -279.5t103 -385.5t-103 -385.5t-279.5 -279.5t-385.5 -103t-385.5 103t-279.5 279.5t-103 385.5zM166 739q0 -183 90 -338t245 -245t339 -90t338.5 90t244.5 244.5t90 338.5t-90 339t-245 245t-338 90 q-137 0 -262 -53.5t-215 -143.5t-143.5 -215t-53.5 -262zM639 324l4 122q16 -11 56.5 -25.5t76.5 -14.5q65 0 104.5 38t39.5 101q0 153 -140 153h-53v115h43q65 0 106.5 33.5t41.5 101.5q0 58 -31 92.5t-84 34.5q-40 0 -77.5 -15.5t-57.5 -31.5l-6 119q22 16 64.5 29.5 t92.5 13.5q112 0 178 -63t66 -169q0 -75 -38.5 -129t-102.5 -73q145 -39 145 -217q0 -118 -73 -183t-201 -65q-88 0 -154 33z" />
<glyph unicode="i" d="M72 739q0 209 103 385.5t279.5 279.5t385.5 103t385.5 -103t279.5 -279.5t103 -385.5t-103 -385.5t-279.5 -279.5t-385.5 -103t-385.5 103t-279.5 279.5t-103 385.5zM166 739q0 -183 90 -338t245 -245t339 -90t338.5 90t244.5 244.5t90 338.5t-90 339t-245 245t-338 90 q-137 0 -262 -53.5t-215 -143.5t-143.5 -215t-53.5 -262zM604 528q0 160 139 230q-139 74 -139 213q0 101 65 160t173 59q100 0 164.5 -57.5t64.5 -149.5q0 -67 -39 -127t-100 -88q73 -37 108 -94t35 -142q0 -110 -65.5 -175.5t-171.5 -65.5q-103 0 -168.5 66t-65.5 171z M743 963q0 -83 107 -150q26 18 51 60t25 94q0 49 -25 79.5t-65 30.5q-38 0 -65.5 -33.5t-27.5 -80.5zM750 535q0 -55 27 -93.5t65 -38.5t62 35.5t24 93.5q0 57 -25 96.5t-76 71.5q-40 -34 -58.5 -71t-18.5 -94z" />
<glyph unicode="o" d="M72 739q0 209 103 385.5t279.5 279.5t385.5 103t385.5 -103t279.5 -279.5t103 -385.5t-103 -385.5t-279.5 -279.5t-385.5 -103t-385.5 103t-279.5 279.5t-103 385.5zM166 739q0 -183 90 -338t245 -245t339 -90t338.5 90t244.5 244.5t90 338.5t-90 339t-245 245t-338 90 q-137 0 -262 -53.5t-215 -143.5t-143.5 -215t-53.5 -262zM623 901q0 131 61 210t162 79q227 0 227 -416q0 -231 -73.5 -357t-206.5 -126q-73 0 -138 26l15 121q57 -32 106 -32q45 0 78.5 29t50.5 75.5t25 93.5t8 94q-14 -34 -44 -57t-63 -23q-99 0 -153.5 75t-54.5 208z M768 903q0 -79 20.5 -124.5t57.5 -45.5q25 0 42 19t25.5 50t11.5 59.5t3 58.5q0 63 -21 110t-61 47q-34 0 -56 -49.5t-22 -124.5z" />
<glyph unicode="p" d="M72 739q0 209 103 385.5t279.5 279.5t385.5 103t385.5 -103t279.5 -279.5t103 -385.5t-103 -385.5t-279.5 -279.5t-385.5 -103t-385.5 103t-279.5 279.5t-103 385.5zM166 739q0 -183 90 -338t245 -245t339 -90t338.5 90t244.5 244.5t90 338.5t-90 339t-245 245t-338 90 q-137 0 -262 -53.5t-215 -143.5t-143.5 -215t-53.5 -262zM608 741q0 215 58.5 332t173.5 117t173 -119t58 -334t-58 -330.5t-173 -115.5t-173.5 117.5t-58.5 332.5zM754 737q0 -334 86 -334t86 338q0 336 -86 336t-86 -340z" />
<glyph unicode="q" d="M72 739q0 209 103 385.5t279.5 279.5t385.5 103t385.5 -103t279.5 -279.5t103 -385.5t-103 -385.5t-279.5 -279.5t-385.5 -103t-385.5 103t-279.5 279.5t-103 385.5zM166 739q0 -183 90 -338t245 -245t339 -90t338.5 90t244.5 244.5t90 338.5t-90 339t-245 245t-338 90 q-137 0 -262 -53.5t-215 -143.5t-143.5 -215t-53.5 -262zM651 987l187 189h104v-871h-143v709l-97 -119z" />
<glyph unicode="r" d="M72 739q0 209 103 385.5t279.5 279.5t385.5 103t385.5 -103t279.5 -279.5t103 -385.5t-103 -385.5t-279.5 -279.5t-385.5 -103t-385.5 103t-279.5 279.5t-103 385.5zM166 739q0 -183 90 -338t245 -245t339 -90t338.5 90t244.5 244.5t90 338.5t-90 339t-245 245t-338 90 q-137 0 -262 -53.5t-215 -143.5t-143.5 -215t-53.5 -262zM571 496v118l228 562h186v-568h90v-112h-90v-191h-137v191h-277zM711 608h137v383z" />
<glyph unicode="t" d="M72 739q0 209 103 385.5t279.5 279.5t385.5 103t385.5 -103t279.5 -279.5t103 -385.5t-103 -385.5t-279.5 -279.5t-385.5 -103t-385.5 103t-279.5 279.5t-103 385.5zM166 739q0 -183 90 -338t245 -245t339 -90t338.5 90t244.5 244.5t90 338.5t-90 339t-245 245t-338 90 q-137 0 -262 -53.5t-215 -143.5t-143.5 -215t-53.5 -262zM639 328l8 133q73 -41 150 -41q69 0 109 47t40 123q0 70 -40.5 116t-119.5 46q-61 0 -133 -29v453h402v-123h-275v-199q33 10 90 10q95 0 158.5 -71.5t63.5 -196.5q0 -143 -73 -223t-198 -80q-79 0 -182 35z" />
<glyph unicode="u" d="M72 739q0 209 103 385.5t279.5 279.5t385.5 103t385.5 -103t279.5 -279.5t103 -385.5t-103 -385.5t-279.5 -279.5t-385.5 -103t-385.5 103t-279.5 279.5t-103 385.5zM166 739q0 -183 90 -338t245 -245t339 -90t338.5 90t244.5 244.5t90 338.5t-90 339t-245 245t-338 90 q-137 0 -262 -53.5t-215 -143.5t-143.5 -215t-53.5 -262zM627 1061v115h432v-117l-232 -754h-157l248 756h-291z" />
<glyph unicode="w" d="M72 739q0 209 103 385.5t279.5 279.5t385.5 103t385.5 -103t279.5 -279.5t103 -385.5t-103 -385.5t-279.5 -279.5t-385.5 -103t-385.5 103t-279.5 279.5t-103 385.5zM166 739q0 -183 90 -338t245 -245t339 -90t338.5 90t244.5 244.5t90 338.5t-90 339t-245 245t-338 90 q-137 0 -262 -53.5t-215 -143.5t-143.5 -215t-53.5 -262zM623 305v133q24 38 80.5 112.5t93.5 126.5t68.5 126.5t31.5 140.5q0 57 -25 94t-63 37q-47 0 -94 -23t-64 -40l-10 121q26 21 80 39t110 18q98 0 155.5 -67.5t57.5 -182.5q0 -88 -28 -165.5t-63.5 -125t-85.5 -114.5 t-76 -117h270v-113h-438z" />
<glyph unicode="y" d="M72 739q0 209 103 385.5t279.5 279.5t385.5 103t385.5 -103t279.5 -279.5t103 -385.5t-103 -385.5t-279.5 -279.5t-385.5 -103t-385.5 103t-279.5 279.5t-103 385.5zM166 739q0 -183 90 -338t245 -245t339 -90t338.5 90t244.5 244.5t90 338.5t-90 339t-245 245t-338 90 q-137 0 -262 -53.5t-215 -143.5t-143.5 -215t-53.5 -262zM598 707q0 232 73 357.5t208 125.5q61 0 139 -29l-17 -121q-63 35 -106 35q-46 0 -79.5 -28.5t-50.5 -76.5t-24.5 -93.5t-9.5 -96.5q16 34 45.5 57t63.5 23q99 0 154 -74.5t55 -207.5q0 -130 -62 -208.5t-164 -78.5 q-225 0 -225 416zM743 541q0 -48 22 -93t58 -45q34 0 57 49t23 123q0 77 -21.5 123.5t-58.5 46.5q-40 0 -60 -46.5t-20 -157.5z" />
<glyph unicode="&#x2000;" horiz-adv-x="789" />
<glyph unicode="&#x2001;" horiz-adv-x="1579" />
<glyph unicode="&#x2002;" horiz-adv-x="789" />
<glyph unicode="&#x2003;" horiz-adv-x="1579" />
<glyph unicode="&#x2004;" horiz-adv-x="526" />
<glyph unicode="&#x2005;" horiz-adv-x="394" />
<glyph unicode="&#x2006;" horiz-adv-x="263" />
<glyph unicode="&#x2007;" horiz-adv-x="263" />
<glyph unicode="&#x2008;" horiz-adv-x="197" />
<glyph unicode="&#x2009;" horiz-adv-x="315" />
<glyph unicode="&#x200a;" horiz-adv-x="87" />
<glyph unicode="&#x2022;" horiz-adv-x="681" d="M211 739q0 51 39 90t90 39t90 -39t39 -90t-39 -90t-90 -39t-90 39t-39 90z" />
<glyph unicode="&#x202f;" horiz-adv-x="315" />
<glyph unicode="&#x205f;" horiz-adv-x="394" />
<glyph unicode="&#x25fc;" horiz-adv-x="1024" d="M0 0z" />
</font>
</defs>
</svg>
